<svg id="Component_59_8" data-name="Component 59 – 8" xmlns="http://www.w3.org/2000/svg" width="175" height="160" viewBox="0 0 175 160">
  <circle id="Ellipse_25" data-name="Ellipse 25" cx="10" cy="10" r="10" fill="#c5efff"/>
  <circle id="Ellipse_25-2" data-name="Ellipse 25" cx="10" cy="10" r="10" transform="translate(39)" fill="#c5efff"/>
  <circle id="Ellipse_25-3" data-name="Ellipse 25" cx="10" cy="10" r="10" transform="translate(78)" fill="#c5efff"/>
  <circle id="Ellipse_25-4" data-name="Ellipse 25" cx="10" cy="10" r="10" transform="translate(116)" fill="#c5efff"/>
  <circle id="Ellipse_25-5" data-name="Ellipse 25" cx="10" cy="10" r="10" transform="translate(155)" fill="#c5efff"/>
  <circle id="Ellipse_25-6" data-name="Ellipse 25" cx="10" cy="10" r="10" transform="translate(0 35)" fill="#c5efff"/>
  <circle id="Ellipse_25-7" data-name="Ellipse 25" cx="10" cy="10" r="10" transform="translate(39 35)" fill="#c5efff"/>
  <circle id="Ellipse_25-8" data-name="Ellipse 25" cx="10" cy="10" r="10" transform="translate(78 35)" fill="#c5efff"/>
  <circle id="Ellipse_25-9" data-name="Ellipse 25" cx="10" cy="10" r="10" transform="translate(116 35)" fill="#c5efff"/>
  <circle id="Ellipse_25-10" data-name="Ellipse 25" cx="10" cy="10" r="10" transform="translate(155 35)" fill="#c5efff"/>
  <circle id="Ellipse_25-11" data-name="Ellipse 25" cx="10" cy="10" r="10" transform="translate(0 70)" fill="#c5efff"/>
  <circle id="Ellipse_25-12" data-name="Ellipse 25" cx="10" cy="10" r="10" transform="translate(39 70)" fill="#c5efff"/>
  <circle id="Ellipse_25-13" data-name="Ellipse 25" cx="10" cy="10" r="10" transform="translate(78 70)" fill="#c5efff"/>
  <circle id="Ellipse_25-14" data-name="Ellipse 25" cx="10" cy="10" r="10" transform="translate(116 70)" fill="#c5efff"/>
  <circle id="Ellipse_25-15" data-name="Ellipse 25" cx="10" cy="10" r="10" transform="translate(155 70)" fill="#c5efff"/>
  <circle id="Ellipse_25-16" data-name="Ellipse 25" cx="10" cy="10" r="10" transform="translate(0 105)" fill="#c5efff"/>
  <circle id="Ellipse_25-17" data-name="Ellipse 25" cx="10" cy="10" r="10" transform="translate(39 105)" fill="#c5efff"/>
  <circle id="Ellipse_25-18" data-name="Ellipse 25" cx="10" cy="10" r="10" transform="translate(78 105)" fill="#c5efff"/>
  <circle id="Ellipse_25-19" data-name="Ellipse 25" cx="10" cy="10" r="10" transform="translate(116 105)" fill="#c5efff"/>
  <circle id="Ellipse_25-20" data-name="Ellipse 25" cx="10" cy="10" r="10" transform="translate(155 105)" fill="#c5efff"/>
  <circle id="Ellipse_25-21" data-name="Ellipse 25" cx="10" cy="10" r="10" transform="translate(0 140)" fill="#c5efff"/>
  <circle id="Ellipse_25-22" data-name="Ellipse 25" cx="10" cy="10" r="10" transform="translate(39 140)" fill="#c5efff"/>
  <circle id="Ellipse_25-23" data-name="Ellipse 25" cx="10" cy="10" r="10" transform="translate(78 140)" fill="#c5efff"/>
  <circle id="Ellipse_25-24" data-name="Ellipse 25" cx="10" cy="10" r="10" transform="translate(116 140)" fill="#c5efff"/>
  <circle id="Ellipse_25-25" data-name="Ellipse 25" cx="10" cy="10" r="10" transform="translate(155 140)" fill="#c5efff"/>
</svg>
